2014019_C5_03_grf
version=1
nRows=21
nColumns=19
inDegrees=no
endheader
time	ground_force_1_vx	ground_force_1_vy	ground_force_1_vz	ground_force_1_px	ground_force_1_py	ground_force_1_pz	ground_force_1_mx	ground_force_1_my	ground_force_1_mz	ground_force_2_vx	ground_force_2_vy	ground_force_2_vz	ground_force_2_px	ground_force_2_py	ground_force_2_pz	ground_force_2_mx	ground_force_2_my	ground_force_2_mz
      0.71000000	     -0.47270683	    460.48585325	    -13.43827844	     -0.20752736	     -0.00200000	      0.26647144	      0.00000000	     -1.29445822	      0.00000000	      0.00000000	      0.00000000	      0.00000000	      0.00000000	      0.00000000	      0.00000000	      0.00000000	      0.00000000	      0.00000000
      0.71100000	     -0.18046692	    459.06264335	    -13.60045299	     -0.20655934	     -0.00200000	      0.26671842	     -0.00000000	     -1.27226483	     -0.00000000	      0.00000000	      0.00000000	      0.00000000	      0.00000000	      0.00000000	      0.00000000	      0.00000000	      0.00000000	      0.00000000
      0.71200000	      0.09997522	    457.71703124	    -13.77190202	     -0.20558199	     -0.00200000	      0.26696793	      0.00000000	     -1.24998450	     -0.00000000	      0.00000000	      0.00000000	      0.00000000	      0.00000000	      0.00000000	      0.00000000	      0.00000000	      0.00000000	      0.00000000
      0.71300000	      0.36582863	    456.46931976	    -13.95453289	     -0.20459345	     -0.00200000	      0.26722037	      0.00000000	     -1.22761440	      0.00000000	      0.00000000	      0.00000000	      0.00000000	      0.00000000	      0.00000000	      0.00000000	      0.00000000	      0.00000000	      0.00000000
      0.71400000	      0.62014232	    455.30062169	    -14.14574236	     -0.20359636	     -0.00200000	      0.26747500	      0.00000000	     -1.20518794	     -0.00000000	      0.00000000	      0.00000000	      0.00000000	      0.00000000	      0.00000000	      0.00000000	      0.00000000	      0.00000000	      0.00000000
      0.71500000	      0.86019127	    454.23151925	    -14.34717625	     -0.20258912	     -0.00200000	      0.26773211	      0.00000000	     -1.18271110	      0.00000000	      0.00000000	      0.00000000	      0.00000000	      0.00000000	      0.00000000	      0.00000000	      0.00000000	      0.00000000	      0.00000000
      0.71600000	      1.08894974	    453.24277133	    -14.55636919	     -0.20157421	     -0.00200000	      0.26799098	     -0.00000000	     -1.16021075	     -0.00000000	      0.00000000	      0.00000000	      0.00000000	      0.00000000	      0.00000000	      0.00000000	      0.00000000	      0.00000000	      0.00000000
      0.71700000	      1.30373723	    452.35525817	    -14.77470025	     -0.20055029	     -0.00200000	      0.26825179	      0.00000000	     -1.13770278	      0.00000000	      0.00000000	      0.00000000	      0.00000000	      0.00000000	      0.00000000	      0.00000000	      0.00000000	      0.00000000	      0.00000000
      0.71800000	      1.50745921	    451.54936612	    -14.99987692	     -0.19951967	     -0.00200000	      0.26851390	      0.00000000	     -1.11520628	     -0.00000000	      0.00000000	      0.00000000	      0.00000000	      0.00000000	      0.00000000	      0.00000000	      0.00000000	      0.00000000	      0.00000000
      0.71900000	      1.69749383	    450.84614307	    -15.23300931	     -0.19848128	     -0.00200000	      0.26877732	      0.00000000	     -1.09274384	      0.00000000	      0.00000000	      0.00000000	      0.00000000	      0.00000000	      0.00000000	      0.00000000	      0.00000000	      0.00000000	      0.00000000
      0.72000000	      1.87670148	    450.22554696	    -15.47200531	     -0.19743719	     -0.00200000	      0.26904152	      0.00000000	     -1.07032161	     -0.00000000	      0.00000000	      0.00000000	      0.00000000	      0.00000000	      0.00000000	      0.00000000	      0.00000000	      0.00000000	      0.00000000
      0.72100000	      2.04254012	    449.70881194	    -15.71768522	     -0.19638661	     -0.00200000	      0.26930637	      0.00000000	     -1.04796241	      0.00000000	      0.00000000	      0.00000000	      0.00000000	      0.00000000	      0.00000000	      0.00000000	      0.00000000	      0.00000000	      0.00000000
      0.72200000	      2.19782302	    449.27548617	    -15.96817374	     -0.19533138	     -0.00200000	      0.26957144	      0.00000000	     -1.02566077	     -0.00000000	      0.00000000	      0.00000000	      0.00000000	      0.00000000	      0.00000000	      0.00000000	      0.00000000	      0.00000000	      0.00000000
      0.72300000	      2.34010280	    448.94685969	    -16.22397825	     -0.19427100	     -0.00200000	      0.26983644	      0.00000000	     -1.00343479	      0.00000000	      0.00000000	      0.00000000	      0.00000000	      0.00000000	      0.00000000	      0.00000000	      0.00000000	      0.00000000	      0.00000000
      0.72400000	      2.47214269	    448.70220125	    -16.48347229	     -0.19320705	     -0.00200000	      0.27010110	      0.00000000	     -0.98126900	     -0.00000000	      0.00000000	      0.00000000	      0.00000000	      0.00000000	      0.00000000	      0.00000000	      0.00000000	      0.00000000	      0.00000000
      0.72500000	      2.59159436	    448.56272638	    -16.74685925	     -0.19213933	     -0.00200000	      0.27036497	      0.00000000	     -0.95917292	      0.00000000	      0.00000000	      0.00000000	      0.00000000	      0.00000000	      0.00000000	      0.00000000	      0.00000000	      0.00000000	      0.00000000
      0.72600000	      2.70115025	    448.50755483	    -17.01278389	     -0.19106917	     -0.00200000	      0.27062793	      0.00000000	     -0.93712530	     -0.00000000	      0.00000000	      0.00000000	      0.00000000	      0.00000000	      0.00000000	      0.00000000	      0.00000000	      0.00000000	      0.00000000
      0.72700000	      2.79856496	    448.55780900	    -17.28115305	     -0.18999667	     -0.00200000	      0.27088940	     -0.00000000	     -0.91512422	      0.00000000	      0.00000000	      0.00000000	      0.00000000	      0.00000000	      0.00000000	      0.00000000	      0.00000000	      0.00000000	      0.00000000
      0.72800000	      2.88645853	    448.69244099	    -17.55089164	     -0.18892285	     -0.00200000	      0.27114941	      0.00000000	     -0.89314538	     -0.00000000	      0.00000000	      0.00000000	      0.00000000	      0.00000000	      0.00000000	      0.00000000	      0.00000000	      0.00000000	      0.00000000
      0.72900000	      2.96270312	    448.93242419	    -17.82160625	     -0.18784810	     -0.00200000	      0.27140728	      0.00000000	     -0.87117063	     -0.00000000	      0.00000000	      0.00000000	      0.00000000	      0.00000000	      0.00000000	      0.00000000	      0.00000000	      0.00000000	      0.00000000
      0.73000000	      3.02984170	    449.25656170	    -18.09251755	     -0.18677318	     -0.00200000	      0.27166317	      0.00000000	     -0.84917716	     -0.00000000	      0.00000000	      0.00000000	      0.00000000	      0.00000000	      0.00000000	      0.00000000	      0.00000000	      0.00000000	      0.00000000
